<svg version="1.2" xmlns="http://www.w3.org/2000/svg" viewBox="0 0 500 500" width="500" height="500">
	<title>logo-svg</title>
	<defs>
		<clipPath clipPathUnits="userSpaceOnUse" id="cp1">
			<path d="m0.23 0.42h500v500h-500z"/>
		</clipPath>
		<clipPath clipPathUnits="userSpaceOnUse" id="cp2">
			<path d="m0.23 0.42h500v500h-500z"/>
		</clipPath>
		<clipPath clipPathUnits="userSpaceOnUse" id="cp3">
			<path d="m54.91 55.11h390.63v390.62h-390.63z"/>
		</clipPath>
		<clipPath clipPathUnits="userSpaceOnUse" id="cp4">
			<path d="m264.3 61.53c8.75 6.9 20.46 8.75 30.91 4.89 9.86-3.64 20.94-0.04 26.78 8.7 6.18 9.27 16.74 14.65 27.87 14.21 10.51-0.42 19.93 6.43 22.78 16.55 3.02 10.72 11.4 19.1 22.13 22.12 10.12 2.85 16.96 12.28 16.55 22.78-0.44 11.13 4.94 21.69 14.2 27.88 8.75 5.84 12.35 16.92 8.7 26.78-3.86 10.45-2 22.16 4.9 30.9 6.51 8.26 6.51 19.9 0 28.16-6.9 8.75-8.76 20.45-4.9 30.9 3.65 9.87 0.05 20.94-8.7 26.78-9.26 6.19-14.64 16.75-14.2 27.88 0.41 10.51-6.43 19.93-16.55 22.78-10.73 3.02-19.11 11.4-22.13 22.12-2.85 10.12-12.27 16.97-22.78 16.55-11.13-0.44-21.69 4.94-27.87 14.21-5.84 8.74-16.92 12.34-26.78 8.7-10.45-3.86-22.16-2.01-30.91 4.89-8.25 6.52-19.9 6.52-28.15 0-8.75-6.9-20.46-8.75-30.91-4.89-9.86 3.64-20.94 0.04-26.78-8.7-6.18-9.27-16.74-14.65-27.87-14.21-10.51 0.42-19.93-6.43-22.78-16.55-3.02-10.72-11.4-19.1-22.13-22.12-10.12-2.85-16.96-12.27-16.55-22.78 0.44-11.13-4.94-21.69-14.2-27.88-8.75-5.84-12.35-16.91-8.7-26.78 3.86-10.45 2-22.15-4.9-30.9-6.51-8.26-6.51-19.9 0-28.16 6.9-8.74 8.76-20.45 4.9-30.9-3.65-9.86-0.05-20.94 8.7-26.78 9.26-6.19 14.64-16.75 14.2-27.88-0.41-10.5 6.43-19.93 16.55-22.78 10.73-3.02 19.11-11.4 22.13-22.12 2.85-10.12 12.27-16.97 22.78-16.55 11.13 0.44 21.69-4.94 27.87-14.21 5.84-8.74 16.92-12.34 26.78-8.7 10.45 3.86 22.16 2.01 30.91-4.89 8.25-6.51 19.9-6.51 28.15 0z"/>
		</clipPath>
		<clipPath clipPathUnits="userSpaceOnUse" id="cp5">
			<path d="m70.58 71.03h355v356h-355z"/>
		</clipPath>
		<clipPath clipPathUnits="userSpaceOnUse" id="cp6">
			<path d="m70.58 71.03h355v356h-355z"/>
		</clipPath>
		<clipPath clipPathUnits="userSpaceOnUse" id="cp7">
			<path d="m70.58 71.03h355v356h-355z"/>
		</clipPath>
		<clipPath clipPathUnits="userSpaceOnUse" id="cp8">
			<path d="m70.58 71.03h355v356h-355z"/>
		</clipPath>
		<clipPath clipPathUnits="userSpaceOnUse" id="cp9">
			<path d="m70.58 71.03h355v356h-355z"/>
		</clipPath>
		<clipPath clipPathUnits="userSpaceOnUse" id="cp10">
			<path d="m0 0h500v500h-500z"/>
		</clipPath>
		<clipPath clipPathUnits="userSpaceOnUse" id="cp11">
			<path d="m0 0h500v500h-500z"/>
		</clipPath>
		<clipPath clipPathUnits="userSpaceOnUse" id="cp12">
			<path d="m0 0h500v500h-500z"/>
		</clipPath>
		<clipPath clipPathUnits="userSpaceOnUse" id="cp13">
			<path d="m0 0h500v500h-500z"/>
		</clipPath>
		<clipPath clipPathUnits="userSpaceOnUse" id="cp14">
			<path d="m257.32 428.06h4.1v3.48h-4.1z"/>
		</clipPath>
		<clipPath clipPathUnits="userSpaceOnUse" id="cp15">
			<path d="m259.5 428.1c1.9 2.2 1.1 2.9 0.6 3-0.4 0.1-1.1-0.1-1.3-0.5-0.3-0.4 0.1-2.2 0.6-2.4 0.4-0.2 2 0.9 2 1.5 0.1 0.5-1.2 1.7-1.9 1.8-0.6 0.1-1.8-0.4-2.1-1-0.2-0.5 0.4-1.9 0.4-1.9"/>
		</clipPath>
		<clipPath clipPathUnits="userSpaceOnUse" id="cp16">
			<path d="m0 0h500v500h-500z"/>
		</clipPath>
		<clipPath clipPathUnits="userSpaceOnUse" id="cp17">
			<path d="m0 0h500v500h-500z"/>
		</clipPath>
		<clipPath clipPathUnits="userSpaceOnUse" id="cp18">
			<path d="m259.35 426.15h2.86v2.44h-2.86z"/>
		</clipPath>
		<clipPath clipPathUnits="userSpaceOnUse" id="cp19">
			<path d="m262.2 427c-1.3 2-2.5 1.7-2.7 1.3-0.3-0.5-0.1-1.7 0.3-2 0.4-0.3 2 0.1 2 0.1"/>
		</clipPath>
		<clipPath clipPathUnits="userSpaceOnUse" id="cp20">
			<path d="m0 0h500v500h-500z"/>
		</clipPath>
		<clipPath clipPathUnits="userSpaceOnUse" id="cp21">
			<path d="m0 0h500v500h-500z"/>
		</clipPath>
		<clipPath clipPathUnits="userSpaceOnUse" id="cp22">
			<path d="m256.65 424.72h6.07v3.38h-6.07z"/>
		</clipPath>
		<clipPath clipPathUnits="userSpaceOnUse" id="cp23">
			<path d="m261.2 427.9c-4.5-0.6-4.6-1.6-4.3-2 0.2-0.5 1.2-0.8 1.7-0.8 0.4 0.1 0.9 0.6 1 1 0.2 0.5-0.1 1.5-0.5 1.8-0.4 0.3-1.5 0.2-1.9-0.1-0.3-0.2-0.6-0.9-0.5-1.3 0-0.5 0.6-1.1 1.2-1.4 0.8-0.4 2.4-0.5 3.3-0.2 0.6 0.2 1.5 0.8 1.5 1.3 0 0.5-1.5 1.7-1.5 1.7z"/>
		</clipPath>
		<clipPath clipPathUnits="userSpaceOnUse" id="cp24">
			<path d="m0 0h500v500h-500z"/>
		</clipPath>
		<clipPath clipPathUnits="userSpaceOnUse" id="cp25">
			<path d="m0 0h500v500h-500z"/>
		</clipPath>
		<clipPath clipPathUnits="userSpaceOnUse" id="cp26">
			<path d="m226.75 425.35h7.1v4.95h-7.1z"/>
		</clipPath>
		<clipPath clipPathUnits="userSpaceOnUse" id="cp27">
			<path d="m227.5 427.4c5.8-0.8 6.3-0.2 6.3 0.3 0.1 0.5-0.5 1.4-1.2 1.8-0.9 0.4-3.1 0.6-4 0-0.8-0.5-1.5-2.4-1.2-3.1 0.2-0.5 1.8-1.1 2.2-0.8 0.5 0.2 0.8 2.2 0.4 2.7-0.3 0.4-1.5 0.4-2 0.2-0.4-0.3-0.8-0.9-0.7-1.4 0-0.6 1.5-1.8 1.6-1.7 0.1 0-0.4 0.7-0.3 0.9 0.3 0.4 3.5-0.3 4.4 0.2 0.5 0.3 0.8 0.8 0.8 1.2 0.1 0.5-0.2 1.2-0.8 1.6-1 0.7-4.4 1.3-5.4 0.8-0.5-0.2-0.8-0.7-0.8-1.1-0.1-0.5 0.7-1.6 0.7-1.6z"/>
		</clipPath>
		<clipPath clipPathUnits="userSpaceOnUse" id="cp28">
			<path d="m0 0h500v500h-500z"/>
		</clipPath>
		<clipPath clipPathUnits="userSpaceOnUse" id="cp29">
			<path d="m0 0h500v500h-500z"/>
		</clipPath>
		<clipPath clipPathUnits="userSpaceOnUse" id="cp30">
			<path d="m224.4 424.35h13.61v5.4h-13.61z"/>
		</clipPath>
		<clipPath clipPathUnits="userSpaceOnUse" id="cp31">
			<path d="m226.1 424.4c6.6 0.6 10.1 1.4 11.2 2.4 0.5 0.5 0.8 1.3 0.6 1.8-0.1 0.5-1.1 1.2-1.6 1.1-0.5-0.1-1.5-1.7-1.4-2.2 0.2-0.5 1.7-1.1 2.2-0.8 0.5 0.2 0.9 1.7 0.7 2.2-0.2 0.5-0.9 0.7-1.8 0.8-2.1 0.2-9.5-1.1-10.9-2.4-0.6-0.6-0.8-1.5-0.6-2 0.2-0.4 1.6-0.9 1.6-0.9z"/>
		</clipPath>
		<clipPath clipPathUnits="userSpaceOnUse" id="cp32">
			<path d="m0 0h500v500h-500z"/>
		</clipPath>
		<clipPath clipPathUnits="userSpaceOnUse" id="cp33">
			<path d="m0 0h500v500h-500z"/>
		</clipPath>
		<clipPath clipPathUnits="userSpaceOnUse" id="cp34">
			<path d="m227.78 423.58h5.25v2.37h-5.25z"/>
		</clipPath>
		<clipPath clipPathUnits="userSpaceOnUse" id="cp35">
			<path d="m229 423.6c3.8 0.5 4.1 1 4 1.3-0.1 0.3-1.6 0.8-1.7 0.6-0.2-0.2 0.4-1.7 0.6-1.7 0.3 0 0.9 1.5 0.7 1.8-0.4 0.5-3.2 0.4-4 0-0.4-0.3-0.8-0.9-0.8-1.3 0.1-0.3 1.2-0.7 1.2-0.7z"/>
		</clipPath>
		<clipPath clipPathUnits="userSpaceOnUse" id="cp36">
			<path d="m0 0h500v500h-500z"/>
		</clipPath>
		<clipPath clipPathUnits="userSpaceOnUse" id="cp37">
			<path d="m0 0h500v500h-500z"/>
		</clipPath>
		<clipPath clipPathUnits="userSpaceOnUse" id="cp38">
			<path d="m228.24 424.1h1.97v1.63h-1.97z"/>
		</clipPath>
		<clipPath clipPathUnits="userSpaceOnUse" id="cp39">
			<path d="m230.2 424.7c-0.9 1.3-1.7 1.1-1.9 0.8-0.1-0.3 0-1.1 0.3-1.3 0.2-0.2 1.3 0.1 1.3 0.1"/>
		</clipPath>
		<clipPath clipPathUnits="userSpaceOnUse" id="cp40">
			<path d="m0 0h500v500h-500z"/>
		</clipPath>
		<clipPath clipPathUnits="userSpaceOnUse" id="cp41">
			<path d="m0 0h500v500h-500z"/>
		</clipPath>
		<clipPath clipPathUnits="userSpaceOnUse" id="cp42">
			<path d="m227.04 424.7h1.97v1.63h-1.97z"/>
		</clipPath>
		<clipPath clipPathUnits="userSpaceOnUse" id="cp43">
			<path d="m229 425.3c-0.9 1.3-1.7 1.1-1.9 0.8-0.1-0.3 0-1.1 0.3-1.3 0.2-0.2 1.3 0.1 1.3 0.1"/>
		</clipPath>
	</defs>
	<style>
		.s0 { fill: #390707 } 
		.s1 { fill: #e8e8e8 } 
		.s2 { fill: #f41818 } 
		.s3 { fill: none;stroke: #390707;stroke-miterlimit:10 } 
		.s4 { fill: none } 
		.s5 { fill: #ffffff;stroke: #390707;stroke-linecap: round;stroke-width: 4 } 
		.s6 { fill: #000000;stroke: #390707;stroke-linecap: round;stroke-width: 4 } 
		.s7 { fill: #000000;stroke: #390707;stroke-linecap: round;stroke-width: 2.8 } 
		.s8 { fill: #000000;stroke: #390707;stroke-linecap: round;stroke-width: 3 } 
	</style>
	<g id="g1">
		<g id="Clip-Path: g10" clip-path="url(#cp1)">
			<g id="g10">
				<g id="Clip-Path: g9" clip-path="url(#cp2)">
					<g id="g9">
						<g id="Clip-Path: g8" clip-path="url(#cp3)">
							<g id="g8">
								<g id="Clip-Path: path8" clip-path="url(#cp4)">
									<path id="path8" class="s0" d="m50.2 50.4h400v400h-400z"/>
								</g>
							</g>
						</g>
					</g>
				</g>
			</g>
		</g>
		<g id="Clip-Path: path11" clip-path="url(#cp5)">
			<path id="path11" class="s1" d="m260.6 324.7c0 4.6-6.9 8.3-15.5 8.3-8.5 0-15.5-3.7-15.5-8.3 0-4.6 7-8.3 15.5-8.3 8.6 0 15.5 3.7 15.5 8.3z"/>
		</g>
		<g id="Clip-Path: path13" clip-path="url(#cp6)">
			<path id="path13" class="s1" d="m229.6 324.7h31v373.8h-31z"/>
		</g>
		<g id="Clip-Path: path15" clip-path="url(#cp7)">
			<path id="path15" class="s0" d="m260.6 324.7v162.6c-9.7 1-23.5 0.2-31-2.8v-159.8c0-4.6 72.6 94.4 81.2 94.4 8.5 0-50.2-99-50.2-94.4z"/>
		</g>
		<g id="Clip-Path: path17" clip-path="url(#cp8)">
			<path id="path17" class="s2" d="m389.5 303.6q-2 5-4.3 9.9-2.3 4.8-4.9 9.5-2.6 4.7-5.5 9.2-2.9 4.5-6.1 8.8-3.2 4.3-6.7 8.4-3.5 4.1-7.2 8-3.7 3.9-7.7 7.5-3.9 3.6-8.1 7-4.2 3.3-8.6 6.4-4.4 3.1-9 5.9-4.6 2.7-9.4 5.2-4.7 2.5-9.6 4.7-4.9 2.2-10 4-5 1.9-10.2 3.4-5.1 1.5-10.4 2.7-5.2 1.2-10.5 2-5.3 0.9-10.6 1.4-5.4 0.5-10.7 0.6-5.4 0.2-10.8 0-5.3-0.2-10.7-0.8-5.3-0.5-10.6-1.4-5.3-0.9-10.5-2.1-5.3-1.2-10.4-2.8-5.2-1.5-10.2-3.4-5-1.9-9.9-4.1-4.9-2.2-9.6-4.7-4.8-2.5-9.3-5.4-4.6-2.8-9-5.9-4.4-3.1-8.5-6.5-4.2-3.4-8.2-7-3.9-3.6-7.6-7.5-3.7-3.9-7.1-8.1-5.4-7.6-9.8-15.9-4-7.3-7.3-15-3.3-7.7-5.8-15.6-2.5-8-4.2-16.2-1.8-8.1-2.7-16.4-1-8.3-1.1-16.7-0.2-8.3 0.5-16.7 0.7-8.3 2.1-16.5 1.5-8.2 3.7-16.3 2.5-8.9 5.9-17.5 2.2-5.6 4.8-10.9 2.6-5.4 5.5-10.6 3-5.2 6.2-10.1 3.3-5 6.9-9.7 3.7-4.7 7.6-9.2 3.9-4.5 8.2-8.7 4.2-4.2 8.7-8 4.5-3.9 9.3-7.5 4.7-3.6 9.7-6.8 5-3.2 10.2-6.1 5.2-2.9 10.6-5.4 5.4-2.6 11-4.7 5.5-2.2 11.2-3.9 5.7-1.8 11.5-3.1 5.8-1.4 11.7-2.4 5.8-0.9 11.8-1.5 5.9-0.6 11.8-0.7 6-0.2 11.9 0.1 6 0.3 11.9 0.9 5.9 0.7 11.8 1.7 5.8 1.1 11.6 2.6 5.8 1.4 11.4 3.3 5.7 1.9 11.2 4.1 5.5 2.3 10.9 4.9 5.3 2.6 10.5 5.6 5.1 2.9 10.1 6.3 4.9 3.3 9.6 6.9 4.7 3.7 9.2 7.6 4.4 4 8.5 8.3 4.2 4.2 8.1 8.8 3.8 4.5 7.3 9.3 3.6 4.8 6.8 9.8-3.2-4.4-6.7-8.7-3.6-4.2-7.3-8.2-3.8-4-7.9-7.7-4-3.7-8.3-7.2-4.3-3.4-8.8-6.6-4.5-3.1-9.2-6-4.7-2.8-9.5-5.3-4.9-2.6-10-4.7-5-2.2-10.2-4.1-5.1-1.8-10.4-3.4-5.3-1.5-10.7-2.6-5.4-1.2-10.8-1.9-5.4-0.8-10.9-1.2-5.5-0.5-11-0.5-5.5-0.1-11 0.2-5.5 0.3-10.9 1-5.5 0.7-10.9 1.7-5.4 1.1-10.7 2.5-5.3 1.4-10.5 3.1-5.2 1.8-10.3 3.8-5.1 2.1-10 4.6-4.9 2.4-9.7 5.1-4.7 2.8-9.3 5.8-4.6 3.1-8.9 6.5-4.4 3.3-8.5 7-4.1 3.6-8 7.5-3.8 3.9-7.4 8.1-3.6 4.1-6.9 8.5-3.3 4.4-6.3 9-3 4.6-5.7 9.4-2.7 4.8-5.1 9.7-2.4 5-4.4 10.1-1.2 3.1-2.3 6.2-1.1 3.1-2 6.3-0.9 3.2-1.7 6.4-0.7 3.2-1.3 6.4-0.6 3.3-1.1 6.6-0.4 3.2-0.7 6.5-0.3 3.3-0.4 6.6-0.1 3.3-0.1 6.6 0.1 3.3 0.3 6.6 0.2 3.3 0.5 6.6 0.4 3.3 0.9 6.5 0.5 3.3 1.2 6.5 0.7 3.3 1.6 6.4 0.8 3.2 1.8 6.4 1 3.1 2.2 6.2 1.1 3.1 2.4 6.2 1.3 3 2.8 6 1.4 2.9 3 5.8 1.6 2.9 3.3 5.7 1.8 2.8 3.6 5.6 1.9 2.7 3.9 5.3 2 2.6 4.1 5.2 2.2 2.5 4.4 4.9 2.3 2.4 4.6 4.7 2.4 2.3 4.9 4.5 2.5 2.2 5 4.3 2.6 2 5.3 4 2.7 1.9 5.4 3.7 2.8 1.8 5.7 3.5 2.8 1.6 5.7 3.2 3 1.5 6 2.8 3 1.4 6.1 2.6 3 1.3 6.1 2.3 3.2 1.1 6.3 2 3.2 0.9 6.4 1.7 3.2 0.8 6.5 1.4 3.2 0.6 6.5 1 3.3 0.5 6.6 0.7 3.3 0.3 6.6 0.4 3.3 0.2 6.6 0.1 3.3 0 6.6-0.2 3.3-0.2 6.5-0.6 3.3-0.4 6.6-0.9 3.3-0.5 6.5-1.2 3.2-0.7 6.4-1.5 3.2-0.9 6.3-1.9 3.2-1 6.3-2.1 3.1-1.2 6.1-2.5 3.1-1.3 6-2.7 3-1.5 5.9-3.1 2.9-1.6 5.7-3.3 2.8-1.7 5.5-3.6 2.7-1.9 5.4-3.9 2.6-2 5.1-4.1 2.6-2.1 5-4.4 2.4-2.2 4.7-4.6 2.3-2.4 4.5-4.8 2.2-2.5 4.2-5.1 2.1-2.6 4-5.3 2-2.6 3.8-5.4 1.8-2.8 3.4-5.6 1.7-2.9 3.2-5.8 1.5-2.9 2.9-5.9 1.4-3.1 2.6-6.1 0.9-2.4 1.8-4.8 0.8-2.4 1.5-4.9 0.7-2.5 1.3-4.9 0.5-2.5 1-5.1 0.4-2.5 0.8-5 0.3-2.5 0.5-5.1 0.2-2.5 0.3-5.1 0.1-2.6 0.1-5.1-0.1-2.6-0.3-5.1-0.1-2.6-0.4-5.1-0.3-2.5-0.7-5.1-0.4-2.5-1-5-0.5-2.5-1.2-5-0.6-2.4-1.4-4.9-0.8-2.4-1.7-4.8-0.9-2.4-1.9-4.7-1-2.4-2.1-4.7-1.2-2.3-2.4-4.5-1.2-2.3-2.6-4.4-1.3-2.2-2.8-4.3-1.4-2.1-3-4.1-1.5-2.1-3.2-4-1.6-2-3.4-3.9-1.7-1.8-3.6-3.6-1.8-1.8-3.7-3.5-1.9-1.7-3.9-3.3-2-1.6-4.1-3.1-2.1-1.4-4.2-2.8-2.2-1.4-4.4-2.7-2.2-1.3-4.5-2.5-2.2-1.2-4.6-2.2-2.3-1.1-4.7-2-2.3-1-4.8-1.8-2.4-0.8-4.8-1.6-2.5-0.7-5-1.3-2.5-0.5-5-1-2.5-0.5-5-0.8-2.6-0.4-5.1-0.6-2.5-0.2-5.1-0.3-2.6-0.1-5.1-0.1-2.6 0.1-5.1 0.2-2.6 0.2-5.1 0.4-2.6 0.3-5.1 0.7-2.5 0.4-5 1-2.5 0.5-5 1.1-2.5 0.7-4.9 1.5-2.4 0.7-4.8 1.6-2.4 0.9-4.8 1.9-2.3 1-4.6 2.1-2.3 1.1-4.6 2.4-2.2 1.2-4.4 2.5-2.2 1.4-4.3 2.8-2.1 1.4-4.1 3-2.1 1.5-4 3.2-2 1.6-3.9 3.4-1.9 1.7-3.7 3.5-1.7 1.8-3.4 3.7-1.7 2-3.4 3.9-1.6 2-3.1 4.1-1.5 2.1-2.9 4.2-1.4 2.2-2.7 4.4-1.3 2.2-2.4 4.4-1.2 2.3-2.3 4.6-1.1 2.3-2 4.7-1.4 3.4-2.4 6.9-1 3.5-1.7 7.1-0.7 3.6-1 7.2-0.3 3.7-0.2 7.3 0 3.7 0.4 7.3 0.4 3.7 1.2 7.2 0.8 3.6 1.9 7.1 1.1 3.5 2.5 6.8 1.4 3.4 3.2 6.6 1.8 3.2 3.8 6.2 2.1 3 4.5 5.8 2.3 2.8 4.9 5.3 2.7 2.6 5.5 4.9 2.9 2.3 5.9 4.3 3.1 1.9 6.3 3.6 3.3 1.7 6.7 3.1 3.4 1.3 6.9 2.3 3.5 1 7.1 1.7 3.6 0.7 7.2 1 3.7 0.3 7.3 0.3 3.7-0.1 7.3-0.5 3.6-0.4 7.2-1.2 3.6-0.7 7.1-1.8 3.4-1.1 6.8-2.6 3.4-1.4 6.6-3.2 3.2-1.7 6.2-3.8 3-2.1 5.8-4.4 2.8-2.4 5.3-5 2.6-2.6 4.9-5.5 2.2-2.8 4.2-5.9 2-3 3.7-6.3 1.7-3.2 3-6.6 0.9-2 1.5-4.1 0.6-2.1 1-4.3 0.4-2.1 0.5-4.3 0.2-2.2 0.2-4.3 0-2.2-0.3-4.4-0.2-2.1-0.7-4.3-0.4-2.1-1.1-4.2-0.6-2-1.5-4-0.9-2-1.9-4-1.1-1.9-2.3-3.7-1.2-1.7-2.6-3.4-1.4-1.7-3-3.2-1.6-1.5-3.3-2.9-1.7-1.3-3.5-2.5-1.8-1.2-3.7-2.2-2-1-4-1.8-2-0.8-4.1-1.4-2.1-0.6-4.2-1-2.2-0.4-4.4-0.6-2.1-0.2-4.3-0.2-2.2 0.1-4.3 0.3-2.2 0.2-4.3 0.7-2.2 0.4-4.2 1.1-2.1 0.7-4.1 1.5-2 0.9-3.9 1.9-1.9 1.1-3.7 2.3-1.8 1.3-3.5 2.7-1.6 1.4-3.2 2.9-1.5 1.6-2.8 3.3-1.4 1.7-2.6 3.5-1.2 1.8-2.2 3.8-1 1.9-1.8 3.9-0.4 1.3-0.7 2.7-0.2 1.3-0.1 2.7 0.1 1.4 0.4 2.7 0.3 1.3 0.9 2.6 0.5 1.2 1.3 2.3 0.8 1.1 1.8 2.1 1 0.9 2.1 1.7 1.2 0.7 2.5 1.2 1.2 0.5 2.6 0.8 1.3 0.2 2.7 0.2 1.3 0 2.7-0.2 1.3-0.3 2.6-0.8 1.3-0.5 2.4-1.3 1.2-0.7 2.1-1.7 1-0.9 1.8-2.1 0.8-1.1 1.3-2.3 0.6-1.5 1.5-2.8 0.8-1.3 1.9-2.4 1.1-1.1 2.4-2 1.3-0.9 2.7-1.5 1.5-0.7 3-1 1.5-0.3 3.1-0.3 1.5 0 3.1 0.2 1.5 0.3 3 0.9 1.4 0.6 2.7 1.4 1.3 0.9 2.5 2 1.1 1.1 2 2.3 0.8 1.3 1.5 2.8 0.6 1.4 0.9 2.9 0.3 1.6 0.4 3.1 0 1.6-0.3 3.1-0.3 1.6-0.9 3-0.8 2.1-1.8 4.1-1.1 2-2.3 3.9-1.2 1.9-2.6 3.7-1.5 1.7-3 3.3-1.6 1.7-3.3 3.1-1.8 1.5-3.6 2.7-1.9 1.3-3.9 2.4-1.9 1.1-4 2-2.1 0.9-4.2 1.6-2.2 0.6-4.4 1.1-2.2 0.5-4.4 0.7-2.3 0.3-4.5 0.3-2.3 0-4.5-0.1-2.3-0.2-4.5-0.6-2.2-0.5-4.4-1.1-2.2-0.6-4.3-1.5-2-0.8-4.1-1.8-2-1.1-3.8-2.3-1.9-1.2-3.7-2.6-1.8-1.4-3.4-3-1.6-1.6-3.1-3.3-1.4-1.7-2.7-3.6-1.3-1.9-2.4-3.8-1-2-1.9-4.1-0.9-2.1-1.6-4.2-0.7-2.2-1.2-4.4-0.4-2.2-0.7-4.4-0.2-2.3-0.3-4.5 0-2.3 0.2-4.5 0.2-2.3 0.6-4.5 0.4-2.2 1-4.4 0.7-2.1 1.5-4.2 1.4-3.5 3.1-6.8 1.7-3.3 3.8-6.5 2-3.1 4.3-6 2.4-2.9 5-5.6 2.6-2.7 5.4-5.1 2.9-2.4 6-4.5 3-2.1 6.3-3.9 3.3-1.8 6.7-3.3 3.4-1.5 7-2.6 3.6-1.1 7.2-1.9 3.7-0.8 7.4-1.2 3.7-0.4 7.4-0.4 3.8-0.1 7.5 0.2 3.7 0.4 7.4 1 3.6 0.7 7.2 1.8 3.6 1 7.1 2.4 3.4 1.4 6.8 3.1 3.3 1.7 6.4 3.7 3.1 2.1 6 4.4 3 2.3 5.6 4.9 2.7 2.6 5.1 5.5 2.4 2.9 4.5 5.9 2.1 3.1 3.9 6.4 1.9 3.2 3.3 6.7 1.5 3.4 2.6 7 1.2 3.5 1.9 7.2 0.8 3.6 1.2 7.3 0.4 3.7 0.5 7.5 0 3.7-0.3 7.4-0.3 3.8-1 7.4-0.7 3.7-1.7 7.3-1.1 3.6-2.4 7-1 2.4-2.1 4.8-1.1 2.3-2.3 4.6-1.3 2.3-2.6 4.5-1.3 2.2-2.7 4.4-1.5 2.1-3 4.2-1.5 2.1-3.2 4.1-1.6 2-3.3 3.9-1.8 1.9-3.6 3.8-1.8 1.8-3.7 3.5-1.9 1.8-3.9 3.4-2 1.7-4.1 3.2-2 1.6-4.2 3-2.1 1.5-4.3 2.8-2.2 1.4-4.5 2.6-2.3 1.2-4.6 2.4-2.3 1.1-4.7 2.1-2.4 1-4.8 1.9-2.4 0.9-4.9 1.6-2.5 0.8-5 1.5-2.5 0.6-5 1.1-2.6 0.6-5.1 1-2.6 0.4-5.1 0.6-2.6 0.3-5.2 0.5-2.6 0.1-5.1 0.1-2.6 0.1-5.2 0-2.6-0.1-5.2-0.4-2.5-0.2-5.1-0.5-2.6-0.4-5.1-0.9-2.6-0.4-5.1-1-2.5-0.6-5-1.4-2.4-0.7-4.9-1.5-2.4-0.9-4.8-1.8-2.4-1-4.8-2-2.3-1.1-4.6-2.3-2.3-1.2-4.6-2.5-2.2-1.3-4.4-2.7-2.1-1.4-4.2-2.9-2.1-1.5-4.2-3.1-2-1.6-3.9-3.4-2-1.7-3.8-3.5-1.9-1.8-3.6-3.6-1.8-1.9-3.5-3.9-1.7-2-3.2-4-1.6-2.1-3.1-4.2-1.5-2.1-2.8-4.3-1.4-2.2-2.6-4.5-1.3-2.2-2.5-4.5-1.1-2.4-2.1-4.7-1.1-2.4-2-4.8-0.9-2.4-1.7-4.9-0.8-2.5-1.5-4.9-0.6-2.5-1.2-5.1-0.6-2.5-1-5-0.4-2.6-0.7-5.2-0.3-2.5-0.5-5.1-0.2-2.6-0.3-5.2 0-2.5 0.1-5.1 0-2.6 0.2-5.2 0.2-2.6 0.5-5.1 0.4-2.6 0.8-5.1 0.5-2.6 1-5.1 0.6-2.5 1.3-5 0.7-2.5 1.5-5 0.8-2.4 1.7-4.8 1.3-3.1 2.7-6.2 1.4-3 2.9-6 1.5-3 3.2-5.8 1.7-2.9 3.5-5.7 1.8-2.8 3.8-5.5 2-2.8 4-5.4 2.1-2.6 4.3-5.1 2.3-2.5 4.6-4.9 2.3-2.4 4.8-4.7 2.4-2.2 5-4.4 2.5-2.1 5.2-4.2 2.6-2 5.4-3.9 2.8-1.9 5.6-3.6 2.8-1.8 5.8-3.4 2.9-1.6 5.9-3.1 3-1.4 6.1-2.8 3-1.3 6.2-2.4 3.1-1.2 6.3-2.2 3.2-1 6.4-1.9 3.2-0.8 6.5-1.5 3.3-0.7 6.6-1.3 3.3-0.5 6.6-0.9 3.3-0.3 6.7-0.5 3.3-0.2 6.6-0.3 3.4 0 6.7 0.1 3.4 0.1 6.7 0.4 3.3 0.3 6.6 0.7 3.3 0.5 6.6 1.1 3.3 0.6 6.6 1.4 3.2 0.7 6.4 1.7 3.2 0.9 6.4 2 3.2 1.1 6.3 2.3 3.1 1.2 6.1 2.6 3 1.4 6 3 3 1.5 5.9 3.2 2.9 1.7 5.7 3.5 2.8 1.8 5.5 3.8 2.7 1.9 5.3 4 2.6 2.1 5.1 4.3 2.5 2.2 4.9 4.6 2.4 2.3 4.7 4.7 2.2 2.5 4.4 5 2.2 2.6 4.2 5.2 2 2.7 3.9 5.5 1.9 2.7 3.6 5.6 1.8 2.8 3.4 5.7 1.6 3 3.1 6 1.5 3 2.8 6 1.3 3.1 2.5 6.2 1.1 3.2 2.1 6.4 1.1 3.1 1.9 6.4 0.9 3.2 1.6 6.5 0.6 3.2 1.2 6.5 0.5 3.3 0.9 6.7 0.4 3.3 0.6 6.6 0.2 3.4 0.2 6.7 0.1 3.3-0.1 6.7-0.1 3.3-0.4 6.6-0.3 3.4-0.7 6.7-0.5 3.3-1.1 6.6-0.6 3.3-1.3 6.5-0.8 3.3-1.7 6.5-1 3.2-2.1 6.4-1 3.1-2.3 6.2z"/>
		</g>
		<g id="Clip-Path: path19" clip-path="url(#cp9)">
			<path id="path19" class="s1" d="m422.1 272q-1.7 12.3-5 24.2-1.6 5.9-3.7 11.7-2 5.7-4.5 11.4-2.5 5.6-5.3 11-2.9 5.4-6.1 10.7-3.2 5.2-6.8 10.1-3.6 5-7.6 9.7-3.9 4.7-8.1 9.2-4.3 4.4-8.9 8.5-4.5 4.1-9.4 7.9-4.8 3.7-9.9 7.2-5.1 3.4-10.4 6.4-5.3 3.1-10.8 5.8-5.6 2.6-11.3 4.9-5.7 2.3-11.5 4.1-5.8 1.9-11.8 3.4-6 1.4-12 2.4-6.1 1.1-12.2 1.7-6.1 0.5-12.2 0.7-6.1 0.2-12.3-0.1-6.1-0.3-12.2-1-6.1-0.7-12.1-1.8-6.1-1.2-12-2.7-5.9-1.6-11.7-3.5-5.8-2-11.5-4.4-5.7-2.4-11.1-5.1-5.5-2.8-10.8-6-5.2-3.1-10.3-6.6-5-3.6-9.8-7.4-4.7-3.9-9.2-8.1-4.5-4.2-8.7-8.7-4.1-4.5-8-9.2-3.8-4.8-7.3-9.9 3.4 4.2 7.1 8.1 3.7 3.9 7.6 7.5 4 3.6 8.2 7 4.1 3.4 8.5 6.5 4.4 3.1 9 5.9 4.5 2.9 9.3 5.4 4.7 2.5 9.6 4.7 4.9 2.2 9.9 4.1 5 1.9 10.2 3.4 5.1 1.6 10.4 2.8 5.2 1.2 10.5 2.1 5.3 0.9 10.6 1.4 5.4 0.6 10.7 0.8 5.4 0.2 10.8 0 5.3-0.1 10.7-0.6 5.3-0.5 10.6-1.4 5.3-0.8 10.5-2 5.3-1.2 10.4-2.7 5.2-1.5 10.2-3.4 5.1-1.8 10-4 4.9-2.2 9.6-4.7 4.8-2.5 9.4-5.2 4.6-2.8 9-5.9 4.4-3.1 8.6-6.4 4.2-3.4 8.1-7 4-3.6 7.7-7.5 3.7-3.9 7.2-8 3.5-4.1 6.7-8.4 3.2-4.3 6.1-8.8 2.9-4.5 5.5-9.2 2.6-4.7 4.9-9.5 2.3-4.9 4.3-9.9 1.3-3.1 2.3-6.2 1.1-3.2 2.1-6.4 0.9-3.2 1.7-6.5 0.7-3.2 1.3-6.5 0.6-3.3 1.1-6.6 0.4-3.3 0.7-6.7 0.3-3.3 0.4-6.6 0.2-3.4 0.1-6.7 0-3.3-0.2-6.7-0.2-3.3-0.6-6.6-0.4-3.4-0.9-6.7-0.6-3.3-1.2-6.5-0.7-3.3-1.6-6.5-0.8-3.3-1.9-6.4-1-3.2-2.1-6.4-1.2-3.1-2.5-6.2-1.3-3-2.8-6-1.5-3-3.1-6-1.6-2.9-3.4-5.7-1.7-2.9-3.6-5.6-1.9-2.8-3.9-5.5-2-2.6-4.2-5.2-2.2-2.5-4.4-5-2.3-2.4-4.7-4.7-2.4-2.4-4.9-4.6-2.5-2.2-5.1-4.3-2.6-2.1-5.3-4-2.7-2-5.5-3.8-2.8-1.8-5.7-3.5-2.9-1.7-5.9-3.2-3-1.6-6-3-3-1.4-6.1-2.6-3.1-1.2-6.3-2.3-3.2-1.1-6.4-2-3.2-1-6.4-1.7-3.3-0.8-6.6-1.4-3.3-0.6-6.6-1.1-3.3-0.4-6.6-0.7-3.3-0.3-6.7-0.4-3.3-0.1-6.7-0.1-3.3 0.1-6.6 0.3-3.4 0.2-6.7 0.5-3.3 0.4-6.6 0.9-3.3 0.6-6.6 1.3-3.3 0.7-6.5 1.5-3.2 0.9-6.4 1.9-3.2 1-6.3 2.2-3.2 1.1-6.2 2.4-3.1 1.4-6.1 2.8-3 1.5-5.9 3.1-3 1.6-5.8 3.4-2.8 1.7-5.6 3.6-2.8 1.9-5.4 3.9-2.7 2.1-5.2 4.2-2.6 2.2-5 4.4-2.5 2.3-4.8 4.7-2.3 2.4-4.6 4.9-2.2 2.5-4.3 5.1-2 2.6-4 5.4-2 2.7-3.8 5.5-1.8 2.8-3.5 5.7-1.7 2.8-3.2 5.8-1.5 3-2.9 6-1.4 3.1-2.7 6.2-0.9 2.4-1.7 4.8-0.8 2.5-1.5 5-0.7 2.5-1.3 5-0.5 2.5-1 5.1-0.4 2.5-0.8 5.1-0.3 2.5-0.5 5.1-0.2 2.6-0.2 5.2-0.1 2.6-0.1 5.1 0.1 2.6 0.3 5.2 0.2 2.6 0.5 5.1 0.3 2.6 0.7 5.2 0.4 2.5 1 5 0.6 2.6 1.2 5.1 0.7 2.4 1.5 4.9 0.8 2.5 1.7 4.9 0.9 2.4 2 4.8 1 2.3 2.1 4.7 1.2 2.3 2.5 4.5 1.2 2.3 2.6 4.5 1.3 2.2 2.8 4.3 1.5 2.1 3.1 4.2 1.5 2 3.2 4 1.7 2 3.5 3.9 1.7 1.8 3.6 3.6 1.8 1.8 3.8 3.5 1.9 1.8 3.9 3.4 2.1 1.6 4.2 3.1 2.1 1.5 4.2 2.9 2.2 1.4 4.4 2.7 2.3 1.3 4.6 2.5 2.3 1.2 4.6 2.3 2.4 1 4.8 2 2.4 0.9 4.8 1.8 2.5 0.8 4.9 1.5 2.5 0.8 5 1.4 2.5 0.6 5.1 1 2.5 0.5 5.1 0.9 2.6 0.3 5.1 0.5 2.6 0.3 5.2 0.4 2.6 0.1 5.2 0 2.5 0 5.1-0.1 2.6-0.2 5.2-0.5 2.5-0.2 5.1-0.6 2.5-0.4 5.1-1 2.5-0.5 5-1.1 2.5-0.7 5-1.5 2.5-0.7 4.9-1.6 2.4-0.9 4.8-1.9 2.4-1 4.7-2.1 2.3-1.2 4.6-2.4 2.3-1.2 4.5-2.6 2.2-1.3 4.3-2.8 2.2-1.4 4.2-3 2.1-1.5 4.1-3.2 2-1.6 3.9-3.4 1.9-1.7 3.7-3.5 1.8-1.9 3.6-3.8 1.7-1.9 3.3-3.9 1.7-2 3.2-4.1 1.5-2.1 3-4.2 1.4-2.2 2.7-4.4 1.3-2.2 2.6-4.5 1.2-2.3 2.3-4.6 1.1-2.4 2.1-4.8 1.4-3.4 2.4-7 1-3.6 1.7-7.3 0.7-3.6 1-7.4 0.3-3.7 0.3-7.4-0.1-3.8-0.5-7.5-0.4-3.7-1.2-7.3-0.7-3.7-1.9-7.2-1.1-3.6-2.6-7-1.4-3.5-3.2-6.7-1.8-3.3-4-6.4-2.1-3.1-4.5-5.9-2.4-2.9-5-5.5-2.7-2.6-5.6-4.9-3-2.4-6.1-4.4-3.1-2-6.4-3.7-3.3-1.8-6.8-3.1-3.5-1.4-7.1-2.5-3.6-1-7.2-1.7-3.7-0.7-7.4-1-3.7-0.3-7.5-0.3-3.7 0.1-7.4 0.5-3.7 0.4-7.4 1.2-3.6 0.8-7.2 1.9-3.6 1.1-7 2.6-3.4 1.5-6.7 3.3-3.3 1.8-6.3 3.9-3.1 2.1-6 4.5-2.8 2.4-5.4 5.1-2.6 2.7-5 5.6-2.3 2.9-4.3 6-2.1 3.2-3.8 6.5-1.7 3.3-3.1 6.8-0.8 2.1-1.5 4.2-0.6 2.2-1 4.4-0.4 2.2-0.6 4.5-0.2 2.2-0.2 4.5 0.1 2.2 0.3 4.5 0.3 2.2 0.7 4.4 0.5 2.2 1.2 4.4 0.7 2.1 1.6 4.2 0.9 2.1 1.9 4.1 1.1 1.9 2.4 3.8 1.3 1.9 2.7 3.6 1.5 1.7 3.1 3.3 1.6 1.6 3.4 3 1.8 1.4 3.7 2.6 1.8 1.2 3.8 2.3 2.1 1 4.1 1.8 2.1 0.9 4.3 1.5 2.2 0.6 4.4 1.1 2.2 0.4 4.5 0.6 2.2 0.1 4.5 0.1 2.2 0 4.5-0.3 2.2-0.2 4.4-0.7 2.2-0.5 4.4-1.1 2.1-0.7 4.2-1.6 2.1-0.9 4-2 2-1.1 3.9-2.4 1.8-1.2 3.6-2.7 1.7-1.4 3.3-3.1 1.5-1.6 3-3.3 1.4-1.8 2.6-3.7 1.2-1.9 2.3-3.9 1-2 1.8-4.1 0.6-1.4 0.9-3 0.3-1.5 0.3-3.1-0.1-1.5-0.4-3.1-0.3-1.5-0.9-2.9-0.7-1.5-1.5-2.8-0.9-1.2-2-2.3-1.2-1.1-2.5-2-1.3-0.8-2.7-1.4-1.5-0.6-3-0.9-1.6-0.2-3.1-0.2-1.6 0-3.1 0.3-1.5 0.3-3 1-1.4 0.6-2.7 1.5-1.3 0.9-2.4 2-1.1 1.1-1.9 2.4-0.9 1.3-1.5 2.8-0.5 1.2-1.3 2.4-0.7 1.2-1.7 2.1-1 1-2.1 1.8-1.2 0.8-2.5 1.3-1.3 0.5-2.6 0.8-1.4 0.3-2.8 0.3-1.3 0-2.7-0.2-1.4-0.3-2.7-0.8-1.2-0.5-2.4-1.3-1.2-0.7-2.2-1.7-1-1-1.8-2.1-0.8-1.1-1.3-2.4-0.6-1.3-0.9-2.6-0.3-1.4-0.3-2.8-0.1-1.3 0.2-2.7 0.2-1.4 0.7-2.7 0.8-2 1.8-3.9 1-2 2.2-3.8 1.2-1.8 2.5-3.5 1.4-1.7 2.9-3.3 1.5-1.5 3.2-2.9 1.7-1.5 3.5-2.7 1.8-1.2 3.7-2.3 1.9-1 3.9-1.9 2-0.8 4-1.5 2.1-0.7 4.2-1.1 2.2-0.5 4.3-0.7 2.2-0.3 4.4-0.3 2.2 0 4.3 0.2 2.2 0.2 4.3 0.6 2.2 0.4 4.3 1 2.1 0.6 4.1 1.4 2 0.8 4 1.8 1.9 1 3.7 2.2 1.8 1.2 3.5 2.5 1.7 1.4 3.3 2.9 1.6 1.5 3 3.2 1.4 1.6 2.6 3.4 1.2 1.8 2.3 3.7 1 1.9 1.9 3.9 0.9 2 1.5 4.1 0.7 2.1 1.1 4.2 0.5 2.2 0.7 4.3 0.3 2.2 0.3 4.4 0 2.1-0.2 4.3-0.2 2.2-0.6 4.3-0.4 2.2-1 4.3-0.6 2.1-1.4 4.1-1.3 3.3-3 6.6-1.7 3.2-3.8 6.2-2 3-4.2 5.8-2.3 2.9-4.9 5.4-2.5 2.6-5.3 5-2.8 2.3-5.8 4.3-3 2.1-6.2 3.8-3.2 1.7-6.6 3.2-3.3 1.4-6.8 2.5-3.5 1-7 1.8-3.6 0.7-7.2 1.1-3.6 0.4-7.2 0.4-3.7 0.1-7.3-0.2-3.6-0.3-7.2-1-3.5-0.7-7-1.7-3.5-1-6.9-2.4-3.4-1.3-6.6-3-3.2-1.6-6.3-3.6-3-2-5.9-4.3-2.8-2.2-5.4-4.8-2.6-2.5-5-5.3-2.3-2.7-4.4-5.7-2-3-3.8-6.2-1.8-3.2-3.2-6.5-1.5-3.3-2.6-6.8-1.1-3.4-1.9-7-0.8-3.5-1.2-7.1-0.4-3.6-0.5-7.3-0.1-3.6 0.2-7.2 0.3-3.7 0.9-7.2 0.7-3.6 1.7-7.1 0.9-3.5 2.3-6.9 0.9-2.4 2-4.7 1.1-2.3 2.3-4.6 1.1-2.2 2.4-4.4 1.3-2.2 2.7-4.4 1.4-2.1 2.9-4.2 1.5-2.1 3.1-4.1 1.7-1.9 3.4-3.9 1.7-1.9 3.4-3.7 1.8-1.8 3.7-3.5 1.9-1.8 3.9-3.4 1.9-1.7 4-3.2 2-1.6 4.1-3 2.1-1.4 4.3-2.8 2.2-1.3 4.4-2.5 2.3-1.3 4.6-2.4 2.3-1.1 4.6-2.1 2.4-1 4.8-1.9 2.4-0.9 4.8-1.6 2.4-0.8 4.9-1.5 2.5-0.6 5-1.1 2.5-0.6 5-1 2.5-0.4 5.1-0.7 2.5-0.2 5.1-0.4 2.5-0.1 5.1-0.2 2.5 0 5.1 0.1 2.6 0.1 5.1 0.3 2.5 0.2 5.1 0.6 2.5 0.3 5 0.8 2.5 0.5 5 1 2.5 0.6 5 1.3 2.4 0.8 4.8 1.6 2.5 0.8 4.8 1.8 2.4 0.9 4.7 2 2.4 1 4.6 2.2 2.3 1.2 4.5 2.5 2.2 1.3 4.4 2.7 2.1 1.4 4.2 2.8 2.1 1.5 4.1 3.1 2 1.6 3.9 3.3 1.9 1.7 3.7 3.5 1.9 1.8 3.6 3.6 1.8 1.9 3.4 3.9 1.7 1.9 3.2 4 1.6 2 3 4.1 1.5 2.1 2.8 4.3 1.4 2.1 2.6 4.4 1.2 2.2 2.4 4.5 1.1 2.3 2.1 4.7 1 2.3 1.9 4.7 0.9 2.4 1.7 4.8 0.8 2.5 1.4 4.9 0.7 2.5 1.2 5 0.6 2.5 1 5 0.4 2.6 0.7 5.1 0.3 2.5 0.4 5.1 0.2 2.5 0.3 5.1 0 2.5-0.1 5.1-0.1 2.6-0.3 5.1-0.2 2.6-0.5 5.1-0.4 2.5-0.8 5-0.5 2.6-1 5.1-0.6 2.4-1.3 4.9-0.7 2.5-1.5 4.9-0.9 2.4-1.8 4.8-1.2 3-2.6 6.1-1.4 3-2.9 5.9-1.5 2.9-3.2 5.8-1.6 2.8-3.4 5.6-1.8 2.8-3.8 5.4-1.9 2.7-4 5.3-2 2.6-4.2 5.1-2.2 2.4-4.5 4.8-2.3 2.4-4.7 4.6-2.4 2.3-5 4.4-2.5 2.1-5.1 4.1-2.7 2-5.4 3.9-2.7 1.9-5.5 3.6-2.8 1.7-5.7 3.3-2.9 1.6-5.9 3.1-2.9 1.4-6 2.7-3 1.3-6.1 2.5-3.1 1.1-6.3 2.1-3.1 1-6.3 1.9-3.2 0.8-6.4 1.5-3.2 0.7-6.5 1.2-3.3 0.5-6.6 0.9-3.2 0.4-6.5 0.6-3.3 0.2-6.6 0.2-3.3 0.1-6.6-0.1-3.3-0.1-6.6-0.4-3.3-0.2-6.6-0.7-3.3-0.4-6.5-1-3.3-0.6-6.5-1.4-3.2-0.8-6.4-1.7-3.1-0.9-6.3-2-3.1-1-6.1-2.3-3.1-1.2-6.1-2.6-3-1.3-6-2.8-2.9-1.6-5.7-3.2-2.9-1.7-5.7-3.5-2.7-1.8-5.4-3.7-2.7-2-5.3-4-2.6-2.1-5-4.3-2.5-2.2-4.9-4.5-2.3-2.3-4.6-4.7-2.2-2.4-4.4-4.9-2.1-2.6-4.1-5.2-2-2.6-3.9-5.3-1.8-2.8-3.6-5.6-1.7-2.8-3.3-5.7-1.6-2.9-3-5.8-1.5-3-2.8-6-1.3-3.1-2.4-6.2-1.2-3.1-2.2-6.2-1-3.2-1.8-6.4-0.9-3.1-1.6-6.4-0.7-3.2-1.2-6.5-0.5-3.2-0.9-6.5-0.3-3.3-0.5-6.6-0.2-3.3-0.3-6.6 0-3.3 0.1-6.6 0.1-3.3 0.4-6.6 0.3-3.3 0.7-6.5 0.5-3.3 1.1-6.6 0.6-3.2 1.3-6.4 0.8-3.2 1.7-6.4 0.9-3.2 2-6.3 1.1-3.1 2.3-6.2 2-5.1 4.4-10.1 2.4-4.9 5.1-9.7 2.7-4.8 5.7-9.4 3-4.6 6.3-9 3.3-4.4 6.9-8.5 3.6-4.2 7.4-8.1 3.9-3.9 8-7.5 4.1-3.7 8.5-7 4.3-3.4 8.9-6.5 4.6-3 9.3-5.8 4.8-2.7 9.7-5.1 4.9-2.5 10-4.6 5.1-2 10.3-3.8 5.2-1.7 10.5-3.1 5.3-1.4 10.7-2.5 5.4-1 10.9-1.7 5.4-0.7 10.9-1 5.5-0.3 11-0.2 5.5 0 11 0.5 5.5 0.4 10.9 1.2 5.4 0.7 10.8 1.9 5.4 1.1 10.7 2.6 5.3 1.6 10.4 3.4 5.2 1.9 10.2 4.1 5.1 2.1 10 4.7 4.8 2.5 9.5 5.3 4.7 2.9 9.2 6 4.5 3.2 8.8 6.6 4.3 3.5 8.3 7.2 4.1 3.7 7.9 7.7 3.7 4 7.3 8.2 3.5 4.3 6.7 8.7 13.6 21.4 20.6 45.9 4.8 16.9 6.1 34.5 1.3 17.6-1 35z"/>
		</g>
		<g id="Clip-Path: path21" clip-path="url(#cp10)">
			<path id="path21" fill-rule="evenodd" class="s3" d="m94.9 223.8q3.6-0.4 6.2 1.7 2.6 2 3 5.9 0.4 4.3-1.9 7.3-2.3 3-5.9 3.3-2.4 0.3-4.2-0.4-1.8-0.6-3.5-2.3l-6.6 6.8 10.7 23.3q1 2 2 3.2 1.1 1.2 2.5 2.3 1 0.8 1.4 1.4 0.5 0.5 0.5 1.2 0.2 1.4-1 2.2-1.1 0.9-4.1 1.3l-11.1 1.1q-4.1 0.4-6.3-1.2-2.1-1.6-3.8-5.6l-5.7-13.7-2.3 2.2-1.7 10.4q-0.2 1.1-0.1 2.1 0.1 1 0.5 1.7 0.3 0.6 1 1.3 0.9 1 0.9 1.7 0.1 0.2 0 0.8-0.2 1.3-1.4 1.9-1.1 0.5-3.5 0.8l-19.7 2.1q-1.8 0.1-2.8-0.3-1.1-0.5-1.2-1.5 0-0.5 0.2-1.2 0.2-0.9 0.9-1.5 0.7-0.6 0.9-0.7 1.2-1 2-2 0.7-0.9 1.1-3l6.4-37.4q0.3-1.1 0.1-2.1 0-0.9-0.4-1.6-0.4-0.6-1-1.3-0.8-1.1-0.9-1.7 0-0.3 0.1-1 0.2-1.1 1.3-1.7 1.1-0.6 3.4-0.8l19.8-2.1q1.8-0.2 2.8 0.3 1 0.4 1.1 1.4 0.1 0.4-0.1 1.1-0.2 0.6-0.6 1.2-0.4 0.5-0.8 0.7-0.3 0.3-0.5 0.5-1.2 0.9-2 1.9-0.7 1-1.1 3l-2.2 12.9 20.2-21.6q2-2.1 3.7-3.1 1.7-1 3.7-1.2zm36 8.2q9.6-1 15.8 2 6.2 2.9 7 10.3 0.3 2.7-0.4 6.4l-2.2 12q0 0.3 0 0.8 0.2 1.4 1.3 1.3 1-0.1 1.6-1.1 0.6-1 0.9-1 0.4 0 0.7 0.5 0.4 0.6 0.5 1.3 0.3 2.3-1.3 4.8-1.5 2.6-4.4 4.4-2.9 1.9-6.5 2.2-4.4 0.5-7.7-0.8-3.2-1.2-4.7-4.2-2.3 3.3-5.5 5.3-3.3 2-7.3 2.4-4.4 0.5-7.7-0.9-3.2-1.5-4.9-4-1.8-2.6-2.1-5.6-0.1-1.4 0-2.7 0.7-5.9 4.9-9.3 4.2-3.5 10.4-4.1 7-0.8 14 0.7l1.5-5.8q0.7-3.6 0.5-5.6-0.3-2-1.6-2.8-1.4-0.9-4-0.6 0.6 1.2 0.8 2.7 0.3 3.1-1.8 5.6-2.1 2.6-6.5 3-4.1 0.4-6.6-1.1-2.6-1.6-2.8-4.3-0.5-4.2 3.9-7.5 4.5-3.3 14.2-4.3zm-2.1 26q-2.3 0.3-3.6 2.2-1.3 2-1.1 4.1 0.2 1.4 0.9 2.1 0.7 0.8 1.9 0.7 1.1-0.1 2.3-1.1 1.2-1.1 1.6-2.9l1.3-5.1q-1.5-0.2-3.3 0zm68.4-33q4.7-0.5 7.8 2.1 3.2 2.6 3.6 6.8 0.2 1.6 0 3-0.5 3.5-2.7 5.6-2.1 2.1-5.4 2.5-3.2 0.3-5-1-1.8-1.4-3.3-3.8-0.9-1.4-1.5-1.9-0.7-0.7-1.4-0.6-0.9 0.1-1.4 0.9-0.6 0.7-0.9 2.4l-4.3 21.7q-0.1 0.5 0 1.3 0.1 1.1 0.8 1.8 0.7 0.6 1.9 1.2 1 0.6 1.4 0.9 0.4 0.4 0.4 1.1-0.1 1.1-1.1 1.7-1 0.6-3.5 0.9l-21.5 2.3q-2.2 0.2-3.3-0.4-1-0.6-0.9-1.8 0.2-1.1 1.6-2 1.2-0.8 1.9-1.8 0.8-1 1.1-3.1l5-25.1q0.1-0.4 0-1.2-0.1-0.9-0.5-1.4-0.4-0.5-1.4-1.1-0.9-0.6-1.3-1.1-0.4-0.5-0.2-1.3 0.3-2 4.9-4 4.7-2 9.9-2.5 3.5-0.4 5.9 0.9 2.4 1.3 3.4 4.1 3.4-6.4 10-7.1zm37.5-3.9q9.6-1 15.8 1.9 6.2 3 7 10.3 0.3 2.8-0.4 6.5l-2.2 11.9q0 0.4 0 0.9 0.2 1.3 1.3 1.2 1-0.1 1.6-1 0.6-1 0.9-1 0.4-0.1 0.7 0.5 0.4 0.5 0.5 1.3 0.3 2.2-1.3 4.8-1.5 2.6-4.4 4.4-2.9 1.8-6.5 2.2-4.4 0.5-7.6-0.8-3.3-1.3-4.8-4.3-2.2 3.3-5.5 5.4-3.3 1.9-7.3 2.4-4.4 0.4-7.6-1-3.2-1.4-5-4-1.8-2.5-2.1-5.6-0.1-1.3 0-2.6 0.7-6 4.9-9.4 4.2-3.4 10.4-4.1 7-0.7 14 0.8l1.5-5.8q0.7-3.7 0.5-5.6-0.3-2-1.6-2.9-1.4-0.9-4-0.6 0.6 1.3 0.8 2.7 0.3 3.2-1.8 5.7-2.1 2.5-6.5 3-4.1 0.4-6.6-1.2-2.5-1.5-2.8-4.2-0.5-4.2 3.9-7.5 4.5-3.3 14.2-4.3zm-2.1 26q-2.3 0.2-3.6 2.2-1.3 2-1.1 4.1 0.2 1.3 0.9 2.1 0.7 0.8 1.9 0.7 1.1-0.2 2.3-1.2 1.2-1 1.6-2.8l1.3-5.2q-1.5-0.1-3.3 0.1zm110.6-4.2q-0.1 0.4-0.1 1.1 0.1 0.6 0.4 0.9 0.4 0.3 0.9 0.2 1-0.1 1.6-1.1 0.6-0.9 0.9-0.9 0.4-0.1 0.7 0.4 0.3 0.6 0.4 1.3 0.4 2.4-1.1 4.9-1.4 2.5-4.5 4.4-3.1 1.8-7.7 2.3-5.5 0.5-9.1-1.7-3.5-2.2-4.1-6.5-0.3-3.1 0.8-7.1l3.4-12.7q0.3-1.1 0.2-1.8-0.1-1.1-0.9-1.6-0.8-0.6-1.8-0.5-1.4 0.2-2.8 1.6-1.4 1.4-2.3 4.3l-3 15.5q-0.1 0.4-0.1 1 0.1 0.6 0.4 0.9 0.4 0.3 0.8 0.3 1.1-0.1 1.7-1.1 0.6-1 0.9-1 0.4 0 0.7 0.5 0.3 0.5 0.4 1.3 0.3 2.4-1.1 4.9-1.4 2.5-4.5 4.3-3.1 1.8-7.7 2.3-5.5 0.6-9.1-1.6-3.5-2.2-4.1-6.5-0.3-3.1 0.8-7.2l3.3-12.6q0.4-1.1 0.3-1.8-0.1-1.1-0.9-1.6-0.8-0.6-1.8-0.5-1.4 0.2-2.8 1.5-1.4 1.4-2.1 4.2l-3.7 18.6q-0.2 1-0.1 1.8 0.1 1 0.5 1.6 0.5 0.6 1.4 1.2 0.6 0.4 0.9 0.8 0.3 0.4 0.2 1-0.2 1.2-1.4 1.8-1.2 0.6-3.9 0.9l-19.2 2q-2.2 0.3-3.3-0.3-1-0.7-0.9-1.9 0.3-1 1.6-1.9 1.2-0.8 1.9-1.8 0.8-1.1 1.2-3.1l4.9-25.2q0.1-0.4 0-1.1-0.1-1-0.5-1.4-0.4-0.5-1.4-1.2-0.9-0.6-1.3-1-0.4-0.5-0.2-1.4 0.3-2 4.9-3.9 4.7-2 9.9-2.6 4.2-0.4 6.8 1.6 2.6 2 3 6 2.9-5.2 6.5-7.4 3.7-2.3 8.1-2.7 4.9-0.6 8.3 2 3.4 2.4 4.2 7 3-6.2 6.9-8.8 3.9-2.7 8.8-3.2 5.1-0.6 8.6 2.2 3.5 2.8 4 7.8 0.3 2.6-0.3 5.2zm33.2-37.2q10.7-1.1 15.8 1.8 5.2 2.9 5.8 8.2 0.1 1.6-0.1 3-0.6 5.7-6.2 8.7-5.5 3-13.3 3.8-4 0.4-7.5 0.3 0.4 4.4 3 5.9 2.7 1.5 7 1 2.1-0.2 3.9-0.8 1.8-0.7 4.5-1.9 2.3-1.1 3.1-1.2 1-0.1 1.1 1 0.4 2.9-1.6 6.4-1.9 3.5-6.1 6.2-4.2 2.8-10.5 3.4-9.4 1-15.9-3.1-6.4-4-7.4-13.1-0.2-2.5 0.1-5.9 1-10.6 7.5-16.6 6.6-6 16.8-7.1zm-5.4 20.7q0.3 0 0.9-0.1 3.6-0.3 5.1-3.8 1.5-3.5 1-7.5-0.4-2.4-1.6-2.2-1 0.1-2.1 1.7-1.1 1.6-2 4.7-0.9 3-1.3 7.2zm49-42.8q4.9-0.5 7.4 1.1 2.5 1.6 2.9 4.9 0.2 1.8-0.2 3.6l-8.7 44.4q-0.2 1-0.1 1.8 0.1 1.1 0.6 1.6 0.5 0.6 1.3 1.1 0.7 0.6 1 0.9 0.3 0.4 0.1 1-0.3 1.1-1.5 1.8-1.2 0.6-3.8 0.9l-19.2 2q-2.2 0.2-3.3-0.4-1.1-0.6-0.8-1.8 0.2-1.1 1.6-2 1.1-0.8 1.9-1.8 0.7-1 1.1-3.1l8.4-43.3q0.2-0.8 0.1-1.3-0.1-1-0.6-1.5-0.5-0.5-1.4-1.1-0.9-0.5-1.3-1-0.5-0.5-0.3-1.3 0.3-2 5-4 4.6-1.9 9.8-2.5zm38.4 13.9q11.5-1.2 17.4 2.8 5.9 4.1 6.7 11.6 0.3 2.5-0.1 5.7-0.8 7.1-4.7 12.7-3.8 5.6-9.9 9.1-6 3.5-13.4 4.3-11.7 1.2-17.8-2.8-6.1-4.1-6.9-11.9-0.3-2.6 0-5.8 0.9-6.8 4.9-12.3 4-5.6 10.2-9.1 6.2-3.5 13.6-4.3zm0.6 7.5q-1.8 0.2-3.5 3.6-1.6 3.3-3.4 12.4-1.7 9-1.4 12.5 0.2 1.9 0.9 2.5 0.7 0.5 1.7 0.4 1.7 0 3.3-3.4 1.6-3.4 3.4-13 1.8-8.4 1.4-12.1-0.2-1.8-0.8-2.4-0.6-0.6-1.6-0.5z"/>
		</g>
		<g id="g22">
		</g>
		<g id="Clip-Path: path23" clip-path="url(#cp11)">
			<path id="path23" fill-rule="evenodd" class="s4" d="m94.9 223.8q3.6-0.4 6.2 1.7 2.6 2 3 5.9 0.4 4.3-1.9 7.3-2.3 3-6 3.4-2.3 0.2-4.1-0.5-1.8-0.6-3.5-2.3l-6.6 6.8 10.7 23.3q1 2 2 3.2 1.1 1.2 2.5 2.3 1 0.9 1.4 1.4 0.5 0.5 0.6 1.2 0.1 1.4-1.1 2.3-1.1 0.8-4.1 1.2l-11.1 1.1q-4.1 0.4-6.3-1.1-2.1-1.7-3.8-5.7l-5.7-13.7-2.3 2.2-1.7 10.4q-0.2 1.1-0.1 2.1 0.1 1 0.5 1.7 0.3 0.6 1 1.3 0.9 1 1 1.7 0 0.1-0.1 0.8-0.2 1.2-1.4 1.8-1.1 0.6-3.5 0.9l-19.8 2.1q-1.7 0.2-2.7-0.3-1.1-0.5-1.2-1.5 0-0.5 0.2-1.2 0.2-0.9 0.9-1.5 0.7-0.6 0.8-0.7 1.3-1 2.1-1.9 0.7-1 1.1-3.1l6.4-37.4q0.3-1.1 0.2-2.1-0.1-1-0.5-1.6-0.4-0.5-1-1.3-0.8-1-0.9-1.7 0-0.3 0.1-1 0.2-1.1 1.3-1.7 1.1-0.6 3.4-0.8l19.8-2.1q1.8-0.2 2.8 0.3 1 0.4 1.1 1.4 0.1 0.4-0.1 1.1-0.2 0.7-0.6 1.2-0.4 0.5-0.8 0.7-0.3 0.3-0.5 0.5-1.2 0.9-2 1.9-0.7 1-1.1 3l-2.2 12.9 20.2-21.6q2-2.1 3.7-3.1 1.7-1 3.7-1.2zm36 8.2q9.7-1 15.8 2 6.2 2.9 7 10.3 0.3 2.8-0.3 6.4l-2.3 12q0 0.3 0 0.8 0.2 1.4 1.3 1.3 1-0.1 1.6-1.1 0.6-1 0.9-1 0.4 0 0.7 0.5 0.4 0.6 0.5 1.3 0.3 2.3-1.3 4.8-1.5 2.6-4.4 4.4-2.9 1.9-6.5 2.2-4.4 0.5-7.7-0.8-3.2-1.2-4.7-4.2-2.2 3.3-5.5 5.3-3.3 2-7.3 2.4-4.4 0.5-7.6-0.9-3.3-1.4-5-4-1.8-2.6-2.1-5.6-0.1-1.4 0-2.7 0.7-5.9 4.9-9.3 4.2-3.5 10.5-4.1 6.9-0.8 13.9 0.7l1.5-5.8q0.7-3.6 0.5-5.6-0.3-2-1.6-2.8-1.4-0.9-4-0.7 0.6 1.3 0.8 2.8 0.3 3.1-1.8 5.6-2.1 2.5-6.5 3-4.1 0.4-6.6-1.1-2.5-1.6-2.8-4.3-0.5-4.2 3.9-7.5 4.5-3.2 14.2-4.3zm-2.1 26q-2.3 0.3-3.6 2.3-1.3 1.9-1.1 4 0.2 1.4 0.9 2.2 0.7 0.7 1.9 0.6 1.1-0.1 2.3-1.1 1.2-1.1 1.6-2.9l1.3-5.1q-1.5-0.2-3.3 0zm68.4-33q4.7-0.5 7.8 2.1 3.2 2.6 3.6 6.8 0.2 1.6 0 3-0.5 3.5-2.7 5.6-2.1 2.1-5.4 2.5-3.2 0.3-5-1-1.8-1.4-3.3-3.8-0.9-1.4-1.5-1.9-0.7-0.7-1.4-0.6-0.9 0.1-1.4 0.8-0.6 0.8-0.9 2.5l-4.3 21.7q-0.1 0.5 0 1.3 0.1 1.1 0.8 1.8 0.7 0.6 1.9 1.2 1.1 0.6 1.4 0.9 0.4 0.4 0.4 1.1-0.1 1.1-1.1 1.7-1 0.6-3.5 0.9l-21.5 2.3q-2.2 0.2-3.3-0.4-1-0.6-0.9-1.8 0.2-1.1 1.6-2 1.2-0.8 1.9-1.8 0.8-1 1.2-3.1l4.9-25.1q0.1-0.5 0-1.2-0.1-0.9-0.5-1.4-0.4-0.5-1.4-1.1-0.9-0.6-1.3-1.1-0.4-0.5-0.2-1.3 0.3-2 5-4 4.6-2 9.8-2.5 3.5-0.4 5.9 0.9 2.5 1.3 3.4 4.1 3.4-6.4 10-7.1zm37.5-3.9q9.7-1 15.8 1.9 6.2 3 7 10.3 0.3 2.8-0.3 6.4l-2.3 12q0 0.4 0 0.9 0.2 1.3 1.3 1.2 1-0.1 1.6-1 0.6-1 0.9-1 0.4-0.1 0.8 0.5 0.3 0.5 0.4 1.3 0.3 2.3-1.3 4.8-1.5 2.6-4.4 4.4-2.9 1.8-6.5 2.2-4.4 0.5-7.7-0.8-3.2-1.3-4.7-4.3-2.2 3.3-5.5 5.3-3.3 2-7.3 2.5-4.4 0.4-7.6-1-3.3-1.4-5-4-1.8-2.5-2.1-5.6-0.1-1.3 0-2.6 0.7-6 4.9-9.4 4.2-3.4 10.5-4.1 6.9-0.7 13.9 0.8l1.5-5.8q0.7-3.7 0.5-5.6-0.3-2-1.6-2.9-1.4-0.9-4-0.6 0.6 1.3 0.8 2.7 0.3 3.2-1.8 5.7-2.1 2.5-6.5 3-4.1 0.4-6.6-1.2-2.5-1.5-2.8-4.2-0.5-4.2 3.9-7.5 4.5-3.3 14.2-4.3zm-2.1 26q-2.3 0.2-3.6 2.2-1.3 2-1.1 4.1 0.2 1.3 0.9 2.1 0.7 0.8 1.9 0.7 1.1-0.1 2.3-1.2 1.2-1 1.6-2.8l1.3-5.2q-1.5-0.1-3.3 0.1zm110.6-4.2q-0.1 0.4 0 1.1 0 0.6 0.3 0.9 0.4 0.3 0.9 0.2 1-0.1 1.6-1.1 0.6-0.9 0.9-0.9 0.4-0.1 0.7 0.4 0.3 0.6 0.4 1.3 0.4 2.5-1.1 5-1.4 2.4-4.5 4.3-3.1 1.8-7.7 2.3-5.5 0.5-9.1-1.7-3.5-2.2-4.1-6.5-0.3-3.1 0.8-7.1l3.4-12.6q0.3-1.2 0.2-1.9-0.1-1.1-0.9-1.6-0.8-0.6-1.8-0.5-1.4 0.2-2.8 1.6-1.4 1.4-2.3 4.2l-3 15.6q-0.1 0.4-0.1 1 0.1 0.6 0.4 0.9 0.3 0.3 0.8 0.3 1.1-0.1 1.7-1.1 0.6-0.9 0.9-1 0.4 0 0.7 0.5 0.3 0.5 0.4 1.3 0.3 2.4-1.1 4.9-1.5 2.5-4.6 4.3-3 1.8-7.6 2.3-5.5 0.6-9.1-1.6-3.6-2.2-4.1-6.5-0.3-3.2 0.8-7.2l3.4-12.6q0.3-1.1 0.2-1.8-0.1-1.1-0.9-1.7-0.8-0.5-1.8-0.4-1.4 0.1-2.8 1.5-1.4 1.4-2.1 4.2l-3.7 18.6q-0.2 1-0.1 1.8 0.1 1 0.6 1.6 0.4 0.6 1.3 1.2 0.6 0.4 0.9 0.8 0.3 0.4 0.2 1.1-0.2 1.1-1.4 1.7-1.3 0.6-3.9 0.9l-19.2 2.1q-2.2 0.2-3.3-0.4-1-0.6-0.9-1.8 0.3-1.1 1.6-2 1.2-0.8 1.9-1.8 0.8-1 1.2-3.1l4.9-25.2q0.1-0.4 0-1.2-0.1-0.9-0.5-1.3-0.4-0.5-1.3-1.2-1-0.6-1.4-1-0.4-0.5-0.2-1.4 0.3-2 5-3.9 4.6-2 9.8-2.6 4.2-0.4 6.8 1.6 2.6 2 3 6 2.9-5.2 6.5-7.4 3.7-2.3 8.2-2.7 4.8-0.6 8.2 1.9 3.4 2.5 4.2 7 3-6.1 6.9-8.7 3.9-2.7 8.8-3.2 5.1-0.6 8.6 2.2 3.5 2.8 4 7.8 0.3 2.6-0.3 5.2zm33.2-37.2q10.7-1.1 15.8 1.8 5.2 2.9 5.8 8.2 0.1 1.6-0.1 3-0.6 5.7-6.2 8.7-5.5 3-13.3 3.8-4 0.4-7.5 0.3 0.4 4.4 3 5.9 2.7 1.5 7 1 2.1-0.2 3.9-0.8 1.8-0.7 4.5-1.9 2.3-1.1 3.1-1.2 1-0.1 1.1 1 0.4 2.9-1.5 6.4-2 3.5-6.2 6.2-4.2 2.8-10.5 3.4-9.4 1-15.9-3.1-6.4-4-7.4-13.1-0.2-2.5 0.1-5.9 1-10.6 7.5-16.6 6.6-6 16.8-7.1zm-5.4 20.7q0.3 0 0.9 0 3.6-0.4 5.1-3.9 1.5-3.5 1-7.5-0.4-2.4-1.6-2.2-1 0.1-2.1 1.7-1.1 1.6-2 4.7-0.9 3-1.3 7.2zm49-42.8q4.9-0.5 7.4 1.2 2.5 1.6 2.9 4.8 0.2 1.8-0.2 3.6l-8.7 44.4q-0.2 1-0.1 1.8 0.1 1.1 0.6 1.7 0.5 0.5 1.3 1 0.7 0.6 0.9 0.9 0.3 0.4 0.2 1-0.3 1.1-1.5 1.8-1.2 0.6-3.8 0.9l-19.2 2q-2.2 0.2-3.3-0.4-1.1-0.6-0.9-1.8 0.3-1.1 1.6-1.9 1.2-0.9 2-1.9 0.7-1 1.1-3.1l8.4-43.3q0.1-0.8 0.1-1.3-0.1-0.9-0.6-1.5-0.6-0.5-1.4-1.1-0.9-0.5-1.3-1-0.5-0.5-0.3-1.3 0.3-2 5-4 4.6-1.9 9.8-2.5zm38.4 13.9q11.5-1.2 17.4 2.8 5.9 4.1 6.7 11.6 0.3 2.5-0.1 5.7-0.8 7.1-4.7 12.7-3.8 5.7-9.9 9.2-6 3.4-13.4 4.2-11.7 1.3-17.8-2.8-6.1-4.1-6.9-11.9-0.3-2.6 0-5.8 0.9-6.8 4.9-12.3 4-5.6 10.2-9.1 6.2-3.5 13.6-4.3zm0.6 7.5q-1.8 0.2-3.4 3.6-1.7 3.3-3.4 12.4-1.8 9-1.5 12.5 0.2 1.9 0.9 2.5 0.6 0.5 1.7 0.4 1.7 0 3.3-3.4 1.6-3.4 3.4-13 1.8-8.4 1.4-12.1-0.2-1.8-0.8-2.4-0.6-0.6-1.6-0.5z"/>
		</g>
		<g id="g24">
			<g id="g25">
			</g>
			<path id="path25" fill-rule="evenodd" class="s5" d="m94.9 223.8q3.6-0.4 6.2 1.7 2.6 2 3 5.9 0.4 4.3-1.9 7.3-2.3 3-6 3.4-2.3 0.2-4.1-0.5-1.8-0.6-3.5-2.3l-6.6 6.8 10.7 23.3q1 2 2 3.2 1.1 1.2 2.5 2.3 1 0.9 1.4 1.4 0.5 0.5 0.6 1.2 0.1 1.4-1.1 2.3-1.1 0.8-4.1 1.2l-11.1 1.1q-4.1 0.4-6.3-1.1-2.1-1.7-3.8-5.7l-5.7-13.7-2.3 2.2-1.7 10.4q-0.2 1.1-0.1 2.1 0.1 1 0.5 1.7 0.3 0.6 1 1.3 0.9 1 1 1.7 0 0.1-0.1 0.8-0.2 1.2-1.4 1.8-1.1 0.6-3.5 0.9l-19.8 2.1q-1.7 0.2-2.7-0.3-1.1-0.5-1.2-1.5 0-0.5 0.2-1.2 0.2-0.9 0.9-1.5 0.7-0.6 0.8-0.7 1.3-1 2.1-1.9 0.7-1 1.1-3.1l6.4-37.4q0.3-1.1 0.2-2.1-0.1-1-0.5-1.6-0.4-0.5-1-1.3-0.8-1-0.9-1.7 0-0.3 0.1-1 0.2-1.1 1.3-1.7 1.1-0.6 3.4-0.8l19.8-2.1q1.8-0.2 2.8 0.3 1 0.4 1.1 1.4 0.1 0.4-0.1 1.1-0.2 0.7-0.6 1.2-0.4 0.5-0.8 0.7-0.3 0.3-0.5 0.5-1.2 0.9-2 1.9-0.7 1-1.1 3l-2.2 12.9 20.2-21.6q2-2.1 3.7-3.1 1.7-1 3.7-1.2zm36 8.2q9.7-1 15.8 2 6.2 2.9 7 10.3 0.3 2.8-0.3 6.4l-2.3 12q0 0.3 0 0.8 0.2 1.4 1.3 1.3 1-0.1 1.6-1.1 0.6-1 0.9-1 0.4 0 0.7 0.5 0.4 0.6 0.5 1.3 0.3 2.3-1.3 4.8-1.5 2.6-4.4 4.4-2.9 1.9-6.5 2.2-4.4 0.5-7.7-0.8-3.2-1.2-4.7-4.2-2.2 3.3-5.5 5.3-3.3 2-7.3 2.4-4.4 0.5-7.6-0.9-3.3-1.4-5-4-1.8-2.6-2.1-5.6-0.1-1.4 0-2.7 0.7-5.9 4.9-9.3 4.2-3.5 10.5-4.1 6.9-0.8 13.9 0.7l1.5-5.8q0.7-3.6 0.5-5.6-0.3-2-1.6-2.8-1.4-0.9-4-0.7 0.6 1.3 0.8 2.8 0.3 3.1-1.8 5.6-2.1 2.5-6.5 3-4.1 0.4-6.6-1.1-2.5-1.6-2.8-4.3-0.5-4.2 3.9-7.5 4.5-3.2 14.2-4.3zm-2.1 26q-2.3 0.3-3.6 2.3-1.3 1.9-1.1 4 0.2 1.4 0.9 2.2 0.7 0.7 1.9 0.6 1.1-0.1 2.3-1.1 1.2-1.1 1.6-2.9l1.3-5.1q-1.5-0.2-3.3 0zm68.4-33q4.7-0.5 7.8 2.1 3.2 2.6 3.6 6.8 0.2 1.6 0 3-0.5 3.5-2.7 5.6-2.1 2.1-5.4 2.5-3.2 0.3-5-1-1.8-1.4-3.3-3.8-0.9-1.4-1.5-1.9-0.7-0.7-1.4-0.6-0.9 0.1-1.4 0.8-0.6 0.8-0.9 2.5l-4.3 21.7q-0.1 0.5 0 1.3 0.1 1.1 0.8 1.8 0.7 0.6 1.9 1.2 1.1 0.6 1.4 0.9 0.4 0.4 0.4 1.1-0.1 1.1-1.1 1.7-1 0.6-3.5 0.9l-21.5 2.3q-2.2 0.2-3.3-0.4-1-0.6-0.9-1.8 0.2-1.1 1.6-2 1.2-0.8 1.9-1.8 0.8-1 1.2-3.1l4.9-25.1q0.1-0.5 0-1.2-0.1-0.9-0.5-1.4-0.4-0.5-1.4-1.1-0.9-0.6-1.3-1.1-0.4-0.5-0.2-1.3 0.3-2 5-4 4.6-2 9.8-2.5 3.5-0.4 5.9 0.9 2.5 1.3 3.4 4.1 3.4-6.4 10-7.1zm37.5-3.9q9.7-1 15.8 1.9 6.2 3 7 10.3 0.3 2.8-0.3 6.4l-2.3 12q0 0.4 0 0.9 0.2 1.3 1.3 1.2 1-0.1 1.6-1 0.6-1 0.9-1 0.4-0.1 0.8 0.5 0.3 0.5 0.4 1.3 0.3 2.3-1.3 4.8-1.5 2.6-4.4 4.4-2.9 1.8-6.5 2.2-4.4 0.5-7.7-0.8-3.2-1.3-4.7-4.3-2.2 3.3-5.5 5.3-3.3 2-7.3 2.5-4.4 0.4-7.6-1-3.3-1.4-5-4-1.8-2.5-2.1-5.6-0.1-1.3 0-2.6 0.7-6 4.9-9.4 4.2-3.4 10.5-4.1 6.9-0.7 13.9 0.8l1.5-5.8q0.7-3.7 0.5-5.6-0.3-2-1.6-2.9-1.4-0.9-4-0.6 0.6 1.3 0.8 2.7 0.3 3.2-1.8 5.7-2.1 2.5-6.5 3-4.1 0.4-6.6-1.2-2.5-1.5-2.8-4.2-0.5-4.2 3.9-7.5 4.5-3.3 14.2-4.3zm-2.1 26q-2.3 0.2-3.6 2.2-1.3 2-1.1 4.1 0.2 1.3 0.9 2.1 0.7 0.8 1.9 0.7 1.1-0.1 2.3-1.2 1.2-1 1.6-2.8l1.3-5.2q-1.5-0.1-3.3 0.1zm110.6-4.2q-0.1 0.4 0 1.1 0 0.6 0.3 0.9 0.4 0.3 0.9 0.2 1-0.1 1.6-1.1 0.6-0.9 0.9-0.9 0.4-0.1 0.7 0.4 0.3 0.6 0.4 1.3 0.4 2.5-1.1 5-1.4 2.4-4.5 4.3-3.1 1.8-7.7 2.3-5.5 0.5-9.1-1.7-3.5-2.2-4.1-6.5-0.3-3.1 0.8-7.1l3.4-12.6q0.3-1.2 0.2-1.9-0.1-1.1-0.9-1.6-0.8-0.6-1.8-0.5-1.4 0.2-2.8 1.6-1.4 1.4-2.3 4.2l-3 15.6q-0.1 0.4-0.1 1 0.1 0.6 0.4 0.9 0.3 0.3 0.8 0.3 1.1-0.1 1.7-1.1 0.6-0.9 0.9-1 0.4 0 0.7 0.5 0.3 0.5 0.4 1.3 0.3 2.4-1.1 4.9-1.5 2.5-4.6 4.3-3 1.8-7.6 2.3-5.5 0.6-9.1-1.6-3.6-2.2-4.1-6.5-0.3-3.2 0.8-7.2l3.4-12.6q0.3-1.1 0.2-1.8-0.1-1.1-0.9-1.7-0.8-0.5-1.8-0.4-1.4 0.1-2.8 1.5-1.4 1.4-2.1 4.2l-3.7 18.6q-0.2 1-0.1 1.8 0.1 1 0.6 1.6 0.4 0.6 1.3 1.2 0.6 0.4 0.9 0.8 0.3 0.4 0.2 1.1-0.2 1.1-1.4 1.7-1.3 0.6-3.9 0.9l-19.2 2.1q-2.2 0.2-3.3-0.4-1-0.6-0.9-1.8 0.3-1.1 1.6-2 1.2-0.8 1.9-1.8 0.8-1 1.2-3.1l4.9-25.2q0.1-0.4 0-1.2-0.1-0.9-0.5-1.3-0.4-0.5-1.3-1.2-1-0.6-1.4-1-0.4-0.5-0.2-1.4 0.3-2 5-3.9 4.6-2 9.8-2.6 4.2-0.4 6.8 1.6 2.6 2 3 6 2.9-5.2 6.5-7.4 3.7-2.3 8.2-2.7 4.8-0.6 8.2 1.9 3.4 2.5 4.2 7 3-6.1 6.9-8.7 3.9-2.7 8.8-3.2 5.1-0.6 8.6 2.2 3.5 2.8 4 7.8 0.3 2.6-0.3 5.2zm33.2-37.2q10.7-1.1 15.8 1.8 5.2 2.9 5.8 8.2 0.1 1.6-0.1 3-0.6 5.7-6.2 8.7-5.5 3-13.3 3.8-4 0.4-7.5 0.3 0.4 4.4 3 5.9 2.7 1.5 7 1 2.1-0.2 3.9-0.8 1.8-0.7 4.5-1.9 2.3-1.1 3.1-1.2 1-0.1 1.1 1 0.4 2.9-1.5 6.4-2 3.5-6.2 6.2-4.2 2.8-10.5 3.4-9.4 1-15.9-3.1-6.4-4-7.4-13.1-0.2-2.5 0.1-5.9 1-10.6 7.5-16.6 6.6-6 16.8-7.1zm-5.4 20.7q0.3 0 0.9 0 3.6-0.4 5.1-3.9 1.5-3.5 1-7.5-0.4-2.4-1.6-2.2-1 0.1-2.1 1.7-1.1 1.6-2 4.7-0.9 3-1.3 7.2zm49-42.8q4.9-0.5 7.4 1.2 2.5 1.6 2.9 4.8 0.2 1.8-0.2 3.6l-8.7 44.4q-0.2 1-0.1 1.8 0.1 1.1 0.6 1.7 0.5 0.5 1.3 1 0.7 0.6 0.9 0.9 0.3 0.4 0.2 1-0.3 1.1-1.5 1.8-1.2 0.6-3.8 0.9l-19.2 2q-2.2 0.2-3.3-0.4-1.1-0.6-0.9-1.8 0.3-1.1 1.6-1.9 1.2-0.9 2-1.9 0.7-1 1.1-3.1l8.4-43.3q0.1-0.8 0.1-1.3-0.1-0.9-0.6-1.5-0.6-0.5-1.4-1.1-0.9-0.5-1.3-1-0.5-0.5-0.3-1.3 0.3-2 5-4 4.6-1.9 9.8-2.5zm38.4 13.9q11.5-1.2 17.4 2.8 5.9 4.1 6.7 11.6 0.3 2.5-0.1 5.7-0.8 7.1-4.7 12.7-3.8 5.7-9.9 9.2-6 3.4-13.4 4.2-11.7 1.3-17.8-2.8-6.1-4.1-6.9-11.9-0.3-2.6 0-5.8 0.9-6.8 4.9-12.3 4-5.6 10.2-9.1 6.2-3.5 13.6-4.3zm0.6 7.5q-1.8 0.2-3.4 3.6-1.7 3.3-3.4 12.4-1.8 9-1.5 12.5 0.2 1.9 0.9 2.5 0.6 0.5 1.7 0.4 1.7 0 3.3-3.4 1.6-3.4 3.4-13 1.8-8.4 1.4-12.1-0.2-1.8-0.8-2.4-0.6-0.6-1.6-0.5z"/>
		</g>
		<g id="Clip-Path: g31" clip-path="url(#cp12)">
			<g id="g31">
				<g id="Clip-Path: g30" clip-path="url(#cp13)">
					<g id="g30">
						<g id="Clip-Path: g29" clip-path="url(#cp14)">
							<g id="g29">
								<g id="Clip-Path: path29" clip-path="url(#cp15)">
									<path id="path29" class="s0" d="m253.4 424.1h12v11.4h-12z"/>
								</g>
							</g>
						</g>
					</g>
				</g>
			</g>
		</g>
		<g id="Clip-Path: g37" clip-path="url(#cp16)">
			<g id="g37">
				<g id="Clip-Path: g36" clip-path="url(#cp17)">
					<g id="g36">
						<g id="Clip-Path: g35" clip-path="url(#cp18)">
							<g id="g35">
								<g id="Clip-Path: path35" clip-path="url(#cp19)">
									<path id="path35" class="s0" d="m255.5 422.3h10.8v10.6h-10.8z"/>
								</g>
							</g>
						</g>
					</g>
				</g>
			</g>
		</g>
		<g id="Clip-Path: g43" clip-path="url(#cp20)">
			<g id="g43">
				<g id="Clip-Path: g42" clip-path="url(#cp21)">
					<g id="g42">
						<g id="Clip-Path: g41" clip-path="url(#cp22)">
							<g id="g41">
								<g id="Clip-Path: path41" clip-path="url(#cp23)">
									<path id="path41" class="s0" d="m252.7 420.9h14.1v11.1h-14.1z"/>
								</g>
							</g>
						</g>
					</g>
				</g>
			</g>
		</g>
		<g id="Clip-Path: g49" clip-path="url(#cp24)">
			<g id="g49">
				<g id="Clip-Path: g48" clip-path="url(#cp25)">
					<g id="g48">
						<g id="Clip-Path: g47" clip-path="url(#cp26)">
							<g id="g47">
								<g id="Clip-Path: path47" clip-path="url(#cp27)">
									<path id="path47" class="s0" d="m222.8 421.4h15.1v12.8h-15.1z"/>
								</g>
							</g>
						</g>
					</g>
				</g>
			</g>
		</g>
		<g id="Clip-Path: g55" clip-path="url(#cp28)">
			<g id="g55">
				<g id="Clip-Path: g54" clip-path="url(#cp29)">
					<g id="g54">
						<g id="Clip-Path: g53" clip-path="url(#cp30)">
							<g id="g53">
								<g id="Clip-Path: path53" clip-path="url(#cp31)">
									<path id="path53" class="s0" d="m220.5 420.4h21.4v13.3h-21.4z"/>
								</g>
							</g>
						</g>
					</g>
				</g>
			</g>
		</g>
		<g id="Clip-Path: g61" clip-path="url(#cp32)">
			<g id="g61">
				<g id="Clip-Path: g60" clip-path="url(#cp33)">
					<g id="g60">
						<g id="Clip-Path: g59" clip-path="url(#cp34)">
							<g id="g59">
								<g id="Clip-Path: path59" clip-path="url(#cp35)">
									<path id="path59" class="s0" d="m223.8 419.6h13.2v10.1h-13.2z"/>
								</g>
							</g>
						</g>
					</g>
				</g>
			</g>
		</g>
		<g id="Clip-Path: g67" clip-path="url(#cp36)">
			<g id="g67">
				<g id="Clip-Path: g66" clip-path="url(#cp37)">
					<g id="g66">
						<g id="Clip-Path: g65" clip-path="url(#cp38)">
							<g id="g65">
								<g id="Clip-Path: path65" clip-path="url(#cp39)">
									<path id="path65" class="s0" d="m224.3 420.2h9.9v9.7h-9.9z"/>
								</g>
							</g>
						</g>
					</g>
				</g>
			</g>
		</g>
		<g id="Clip-Path: g73" clip-path="url(#cp40)">
			<g id="g73">
				<g id="Clip-Path: g72" clip-path="url(#cp41)">
					<g id="g72">
						<g id="Clip-Path: g71" clip-path="url(#cp42)">
							<g id="g71">
								<g id="Clip-Path: path71" clip-path="url(#cp43)">
									<path id="path71" class="s0" d="m223.1 420.8h9.9v9.7h-9.9z"/>
								</g>
							</g>
						</g>
					</g>
				</g>
			</g>
		</g>
		<path id="rect83" class="s6" d="m235.5 425.8h27.1v3.3h-27.1z"/>
		<path id="rect85" class="s7" d="m260.2 424.3v0.4z"/>
		<path id="rect86" class="s8" d="m262.1 424.2h0.2v0.1h-0.2z"/>
		<path id="rect87" class="s6" d="m226.5 423.9h1.2v1.8h-1.2z"/>
	</g>
</svg>